<?xml version="1.0" encoding="utf-8"?>
<!-- Generator: Adobe Illustrator 22.1.0, SVG Export Plug-In . SVG Version: 6.00 Build 0)  -->
<svg version="1.1" xmlns="http://www.w3.org/2000/svg" xmlns:xlink="http://www.w3.org/1999/xlink" x="0px" y="0px"
	 viewBox="0 0 34 34" style="enable-background:new 0 0 34 34;" xml:space="preserve">
<style type="text/css">
	.st0{fill:#1B5887;}
</style>
<g id="Layer_1">
	<g>
		<path class="st0" d="M25.3,10.8c0.1,0.1,0.2,0.3,0.2,0.5v13.5c0,0.2-0.1,0.3-0.2,0.5c-0.1,0.1-0.3,0.2-0.5,0.2H9.3
			c-0.2,0-0.3-0.1-0.5-0.2c-0.1-0.1-0.2-0.3-0.2-0.5V11.3c0-0.2,0.1-0.3,0.2-0.5c0.1-0.1,0.3-0.2,0.5-0.2h2.4
			c0.1-0.7,0.1-1.2,0.1-1.4c0-0.2,0.1-0.3,0.1-0.4c0.1-0.2,0.2-0.2,0.3-0.2h0.9c0.1,0,0.2,0.1,0.3,0.2c0,0.1,0.1,0.2,0.1,0.4v0
			c0,0.2,0.1,0.7,0.1,1.4v2c0.1,0,0.1,0,0.1-0.1l0.6-1.9h5.4c0.1-0.7,0.1-1.2,0.1-1.4C19.9,9,20,8.9,20,8.8c0.1-0.2,0.2-0.2,0.3-0.2
			h1c0.1,0,0.2,0.1,0.3,0.2c0,0.1,0.1,0.2,0.1,0.4v0c0,0.2,0.1,0.7,0.1,1.4v2c0.1,0,0.1,0,0.1-0.1l0.6-1.9h2.3
			C25,10.6,25.2,10.6,25.3,10.8z M23.8,15H10.3v8.8h13.5V15z M11.6,18.7h2.7v-2h-2.7V18.7z M11.6,22.1h2.7v-2h-2.7V22.1z M15.7,18.7
			h2.7v-2h-2.7V18.7z M15.7,22.1h2.7v-2h-2.7V22.1z M19.8,18.7h2.7v-2h-2.7V18.7z M19.8,22.1h2.7v-2h-2.7V22.1z"/>
	</g>
</g>
<g id="Layer_2">
</g>
</svg>
